<svg xmlns="http://www.w3.org/2000/svg" width="16" height="16" viewBox="0 0 16 16"><title>briefcase</title><path d="M7,7.4H9V9h7s-.12-3.57-.16-4.68-.42-1.72-1.6-1.72H11.67s-.83-1.76-1-2c-.26-.5-.36-.6-.94-.6H6.23c-.59,0-.68.1-.94.6-.13.25-1,2-1,2H1.76C.58,2.6.2,3.26.16,4.32S0,9,0,9H7ZM6.12,1.53c.18-.35.25-.41.65-.41H9.23c.41,0,.47.07.65.41.07.13.46,1.07.46,1.07H5.66S6.05,1.66,6.12,1.53ZM9,11.6H7V10H.42s.1,1.44.16,2.66A1.26,1.26,0,0,0,2,14H14a1.26,1.26,0,0,0,1.44-1.34c.07-1.25.16-2.66.16-2.66H9Z"/></svg>