<svg xmlns="http://www.w3.org/2000/svg" width="16" height="16" viewBox="0 0 16 16"><title>circles-arrow</title><path d="M9.09,4.13,12.4,7.6l2.84-3.8L12.9,4A5.14,5.14,0,0,0,8,0,4.91,4.91,0,0,0,3.1,4.9a.65.65,0,0,0,.6.6.65.65,0,0,0,.6-.6A3.59,3.59,0,0,1,7.88,1.3h0a3.61,3.61,0,0,1,3.65,2.8Z"/><path d="M3.7,8.6a3.7,3.7,0,1,0,3.7,3.7h0A3.76,3.76,0,0,0,3.7,8.6Zm0,6.2a2.5,2.5,0,1,1,2.5-2.54s0,0,0,0A2.61,2.61,0,0,1,3.7,14.8Z"/><path d="M12.3,8.6a3.7,3.7,0,0,0,0,7.4A3.63,3.63,0,0,0,16,12.44s0-.09,0-.14a3.63,3.63,0,0,0-3.56-3.7Z"/></svg>