<svg xmlns="http://www.w3.org/2000/svg" width="16" height="16" viewBox="0 0 16 16"><title>document-x</title><path d="M5,0H3.5A2.51,2.51,0,0,0,1,2.5v11A2.51,2.51,0,0,0,3.5,16h8A2.51,2.51,0,0,0,14,13.5V11a1,1,0,1,0-2,0v2.5a.52.52,0,0,1-.5.5h-8a.52.52,0,0,1-.5-.5V2.5A.52.52,0,0,1,3.5,2H5A1,1,0,0,0,5,0Z"/><path d="M12.91,3.5l1.77-1.77A1,1,0,0,0,13.27.32L11.5,2.09,9.73.32A1,1,0,0,0,8.32,1.73L10.09,3.5,8.32,5.27a1,1,0,0,0,0,1.41,1,1,0,0,0,1.41,0L11.5,4.91l1.77,1.77a1,1,0,0,0,1.41,0,1,1,0,0,0,0-1.41Z"/></svg>