<svg xmlns="http://www.w3.org/2000/svg" width="16" height="16" viewBox="0 0 16 16"><title>gauge</title><path d="M6.5,10.75a1.48,1.48,0,0,0,.59,2.19,1.47,1.47,0,0,0,2.18-.59c.55-.95,4-9.49,3.74-9.66S7.05,9.8,6.5,10.75ZM8,4.67a5.69,5.69,0,0,1,1,.09l1.13-1.38A7.6,7.6,0,0,0,8,3.07c-4.49,0-8,3.79-8,8.62a8.64,8.64,0,0,0,0,.88.81.81,0,0,0,.87.73.8.8,0,0,0,.72-.87c0-.24,0-.49,0-.74C1.6,7.75,4.41,4.67,8,4.67Zm5.78,1c-.23.6-.46,1.22-.67,1.74a7.54,7.54,0,0,1,1.29,4.28c0,.25,0,.51,0,.75a.8.8,0,0,0,.72.87h.07a.81.81,0,0,0,.8-.73c0-.3,0-.6,0-.9A9,9,0,0,0,13.78,5.67Z"/></svg>