<svg xmlns="http://www.w3.org/2000/svg" width="16" height="16" viewBox="0 0 16 16"><title>gem</title><path d="M2.16,2.37A.24.24,0,0,0,2,2.29a.17.17,0,0,0-.09.08l-.43.56L.23,4.55a.4.4,0,0,0-.11.33A.24.24,0,0,0,.38,5H3.63a.25.25,0,0,0,.25-.11.32.32,0,0,0-.09-.24Z"/><path d="M14.08,2.37a.24.24,0,0,0-.13-.12.17.17,0,0,0-.09.08l-1.6,2.23a.4.4,0,0,0-.11.33A.24.24,0,0,0,12.4,5h3.24a.25.25,0,0,0,.25-.11.32.32,0,0,0-.09-.24Z"/><path d="M2.83,1.15a.38.38,0,0,0,.11.31c.16.22,1.69,2,1.69,2a.16.16,0,0,0,.23,0h0L6.59,1.38a.32.32,0,0,0,.08-.26A.26.26,0,0,0,6.42,1H3.08A.24.24,0,0,0,2.83,1.15Z"/><path d="M9.63,1a.24.24,0,0,0-.29.14.4.4,0,0,0,.11.31c.21.22,1.73,2,1.73,2a.17.17,0,0,0,.09.08.24.24,0,0,0,.13-.12l1.73-2.1a.32.32,0,0,0,.09-.24A.25.25,0,0,0,13,1Z"/><path d="M5.78,4.35a.54.54,0,0,0-.13.46A.32.32,0,0,0,6,5h4.09a.33.33,0,0,0,.35-.16.43.43,0,0,0-.11-.35L8.18,1.77A.34.34,0,0,0,8,1.6H8a.2.2,0,0,0-.13.11Z"/><path d="M4.19,6.31C4.11,6.08,4.1,6,3.83,6H.26a.26.26,0,0,0-.25.1.33.33,0,0,0,.09.29c.37.53,6.55,9.2,6.74,9.5A.26.26,0,0,0,7.1,16a.28.28,0,0,0,0-.29C7,15.24,4.2,6.37,4.19,6.31Z"/><path d="M12.17,6h0c-.27,0-.29,0-.36.29l-.05.16C10.12,12,8.94,15.35,8.88,15.66a.28.28,0,0,0,0,.29.26.26,0,0,0,.25-.12c.19-.24,6.37-9,6.74-9.5A.33.33,0,0,0,16,6.09a.26.26,0,0,0-.25-.1Z"/><path d="M8,15.94a.17.17,0,0,0,.13-.14c.13-.49,2.25-9.07,2.33-9.5a.39.39,0,0,0,0-.24.46.46,0,0,0-.29-.1H5.72a.26.26,0,0,0-.17,0,.39.39,0,0,0,0,.3c.09.48,2.2,9,2.33,9.41a.19.19,0,0,0,.08.26l0,0Z"/></svg>