<svg xmlns="http://www.w3.org/2000/svg" width="16" height="16" viewBox="0 0 16 16"><title>grip</title><rect x="3" y="3" width="1" height="2" fill="#a5abba"/><rect x="4" y="3" width="1" height="2" fill="#e1e3e9"/><rect x="7" y="3" width="1" height="2" fill="#a5abba"/><rect x="8" y="3" width="1" height="2" fill="#e1e3e9"/><rect x="11" y="3" width="1" height="2" fill="#a5abba"/><rect x="12" y="3" width="1" height="2" fill="#e1e3e9"/><rect x="3" y="7" width="1" height="2" fill="#a5abba"/><rect x="4" y="7" width="1" height="2" fill="#e1e3e9"/><rect x="7" y="7" width="1" height="2" fill="#a5abba"/><rect x="8" y="7" width="1" height="2" fill="#e1e3e9"/><rect x="11" y="7" width="1" height="2" fill="#a5abba"/><rect x="12" y="7" width="1" height="2" fill="#e1e3e9"/><rect x="3" y="11" width="1" height="2" fill="#a5abba"/><rect x="4" y="11" width="1" height="2" fill="#e1e3e9"/><rect x="7" y="11" width="1" height="2" fill="#a5abba"/><rect x="8" y="11" width="1" height="2" fill="#e1e3e9"/><rect x="11" y="11" width="1" height="2" fill="#a5abba"/><rect x="12" y="11" width="1" height="2" fill="#e1e3e9"/></svg>