<svg xmlns="http://www.w3.org/2000/svg" width="16" height="16" viewBox="0 0 16 16"><title>handshake</title><path d="M4.77,5.49c-.39.43-.24.66-.17.78a.49.49,0,0,0,.66.21l.06,0,.87-.55,1-.66a1.76,1.76,0,0,1,2.22.24c.24.24,2.55,2.91,4,4.54H16V5H14.4c-1.6,0-3.46-2-4.86-2.74A2.15,2.15,0,0,0,8.85,2,38.12,38.12,0,0,0,4.77,5.49Z"/><path d="M6.54,12.83a.53.53,0,1,1,.79-.72h0L8.9,13.84a1.09,1.09,0,0,0,.69-.33L7.88,11.63a.53.53,0,1,1,.79-.72l2.09,2.3a.85.85,0,0,0,.8-.59L9.15,10a.53.53,0,0,1,.79-.72l2.87,3.15a1.07,1.07,0,0,0,.38-.75,2.3,2.3,0,0,0,0-.37C11.41,9.38,9,6.71,8.73,6.48a.7.7,0,0,0-.87-.11L6.76,7l-.86.55a1.56,1.56,0,0,1-2.16-.43l0,0A1.62,1.62,0,0,1,4,5,22,22,0,0,1,6.2,3C4.84,2.94,3.35,4.14,2.65,4.74A1.16,1.16,0,0,1,1.81,5H0v5H1.59c.53,0,.76.21,1.67,1.1.71.71,2.54,2.48,2.54,2.48A1.92,1.92,0,0,0,7,14a1.15,1.15,0,0,0,.52-.12Z"/></svg>