<svg xmlns="http://www.w3.org/2000/svg" width="16" height="16" viewBox="0 0 16 16"><title>lock-mixed</title><path d="M12.8,7H12V6H10V7H6V6H4V7H3A1.19,1.19,0,0,0,2,8.2V14a1.47,1.47,0,0,0,1,1.31l1.2.39a7.73,7.73,0,0,0,2,.31H9.9a7.68,7.68,0,0,0,2-.31l1.2-.39A1.47,1.47,0,0,0,14,14V8.2A1.37,1.37,0,0,0,12.8,7Z"/><path d="M8.62,2.16,9.25.26a4,4,0,0,0-2.51,0l.64,1.9A2,2,0,0,1,8.62,2.16Z"/><path d="M12,4.06a3.94,3.94,0,0,0-.74-2.32L9.63,2.9A2,2,0,0,1,10,4.12Z"/><path d="M6.36,2.91,4.73,1.76A4,4,0,0,0,4,4.06v.07l2-.08A2,2,0,0,1,6.36,2.91Z"/></svg>