<svg xmlns="http://www.w3.org/2000/svg" width="16" height="16" viewBox="0 0 16 16"><title>paperclip</title><path d="M4.18,16a4.29,4.29,0,0,1-2.94-1.18A3.84,3.84,0,0,1,1.42,9L9.9,1a3.17,3.17,0,0,1,3-.87,3,3,0,0,1,2.15,2A2.83,2.83,0,0,1,14.13,5L6,12.69a2.6,2.6,0,0,1-1.51.75A1.72,1.72,0,0,1,3.15,13c-.63-.6-.72-1.73.33-2.72L9.17,4.87a.62.62,0,0,1,.85,0,.55.55,0,0,1,0,.8L4.32,11.09c-.49.47-.54.91-.33,1.11a.49.49,0,0,0,.39.11,1.43,1.43,0,0,0,.79-.43l8.11-7.71a1.74,1.74,0,0,0,.6-1.75,1.82,1.82,0,0,0-1.3-1.24,2,2,0,0,0-1.84.57L2.27,9.82A2.75,2.75,0,0,0,2.08,14a3.1,3.1,0,0,0,4.42-.17L15,5.79a.62.62,0,0,1,.85,0,.55.55,0,0,1,0,.81L7.35,14.65A4.57,4.57,0,0,1,4.18,16Z"/></svg>