<svg xmlns="http://www.w3.org/2000/svg" width="16" height="16" viewBox="0 0 16 16"><title>people-folder</title><path d="M14.19,2H7L5,0H1.81A1.81,1.81,0,0,0,0,1.81V14.19A1.81,1.81,0,0,0,1.81,16H14.19A1.81,1.81,0,0,0,16,14.19V3.81A1.81,1.81,0,0,0,14.19,2ZM9.5,4A2.75,2.75,0,1,1,6.75,6.75,2.75,2.75,0,0,1,9.5,4Zm-3,0a2.73,2.73,0,0,1,.42,0,3.72,3.72,0,0,0,0,5.42A2.75,2.75,0,1,1,6.5,4ZM4,12.83V14H2V12.83c0-1.25,1.93-2,3.47-2.24A2.68,2.68,0,0,0,4,12.83ZM14,14H5V12.83c0-1.55,3-2.33,4.5-2.33s4.5.78,4.5,2.33Z"/></svg>