<svg xmlns="http://www.w3.org/2000/svg" width="16" height="16" viewBox="0 0 16 16"><title>question-diamond</title><path d="M15.43,6.62l-6-6a2,2,0,0,0-2.76,0l-6,6.05a2,2,0,0,0,0,2.76l6.05,6a2,2,0,0,0,2.76,0l6-6A2,2,0,0,0,15.43,6.62ZM8.09,13.5H7.85a1.26,1.26,0,1,1,.24,0ZM11,7.36l0,0a5.53,5.53,0,0,1-1,.87l-.53.36a1.45,1.45,0,0,0-.56.64,1.42,1.42,0,0,0-.08.54v.14h-2V9.76A2.25,2.25,0,0,1,7.1,8.31,8.64,8.64,0,0,1,8.61,7.13,1.52,1.52,0,0,0,9,6.76,1.23,1.23,0,0,0,9.29,6,1.42,1.42,0,0,0,9,5.14a1.12,1.12,0,0,0-1-.38,1.12,1.12,0,0,0-1,.49,1.89,1.89,0,0,0-.3,1v.09H4.63V6.25A3.15,3.15,0,0,1,6,3.51,3.61,3.61,0,0,1,8,3a4.25,4.25,0,0,1,2.51.74,2.53,2.53,0,0,1,1,2.17A2.53,2.53,0,0,1,11,7.36Z"/></svg>