<svg xmlns="http://www.w3.org/2000/svg" width="16" height="16" viewBox="0 0 16 16"><title>sliders</title><path d="M4,4V.5a.5.5,0,0,0-1,0V4Z"/><path d="M9,9V.5a.5.5,0,0,0-1,0V9Z"/><path d="M14,2V.5a.5.5,0,0,0-1,0V2Z"/><path d="M5,5H2A1,1,0,0,0,1,6V7A1,1,0,0,0,2,8H3v7.5a.5.5,0,0,0,1,0V8H5A1,1,0,0,0,6,7V6A1,1,0,0,0,5,5Z"/><path d="M10,10H7a1,1,0,0,0-1,1v1a1,1,0,0,0,1,1H8v2.5a.5.5,0,0,0,1,0V13h1a1,1,0,0,0,1-1V11A1,1,0,0,0,10,10Z"/><path d="M15,3H12a1,1,0,0,0-1,1V5a1,1,0,0,0,1,1h1v9.5a.5.5,0,0,0,1,0V6h1a1,1,0,0,0,1-1V4A1,1,0,0,0,15,3Z"/></svg>