<svg xmlns="http://www.w3.org/2000/svg" width="30" height="30" viewBox="0 0 30 30"><title>bills-stack</title><polygon points="4 28 2 30 2 0 4 0 4 28"/><polygon points="8 28 6 30 6 0 8 0 8 28"/><path d="M23,0H10V30l3-3,3,3,3-3,3,3,3-3,3,3V5ZM13,7h5a1,1,0,0,1,0,2H13a1,1,0,0,1,0-2Zm7,15H13a1,1,0,0,1,0-2h7a1,1,0,0,1,0,2Zm0-4H13a1,1,0,0,1,0-2h7a1,1,0,0,1,0,2Zm0-4H13a1,1,0,0,1,0-2h7a1,1,0,0,1,0,2Zm5,8H23a1,1,0,0,1,0-2h2a1,1,0,0,1,0,2Zm0-4H23a1,1,0,0,1,0-2h2a1,1,0,0,1,0,2Zm0-4H23a1,1,0,0,1,0-2h2a1,1,0,0,1,0,2ZM22,6V1l5,5Z"/></svg>