<svg xmlns="http://www.w3.org/2000/svg" width="30" height="30" viewBox="0 0 30 30"><title>book</title><path d="M24.5,1H22.75a3.5,3.5,0,0,1,3.5,3.5v21a3.5,3.5,0,0,1-3.5,3.5H24.5A3.5,3.5,0,0,0,28,25.5V4.5A3.5,3.5,0,0,0,24.5,1Z"/><path d="M20.5,1H5.5A3.5,3.5,0,0,0,2,4.5V6.25H3.75a1.75,1.75,0,0,1,0,3.5H2v3.5H3.75a1.75,1.75,0,0,1,0,3.5H2v3.5H3.75a1.75,1.75,0,0,1,0,3.5H2V25.5A3.5,3.5,0,0,0,5.5,29h15A3.5,3.5,0,0,0,24,25.5V4.5A3.5,3.5,0,0,0,20.5,1ZM18.63,9.75a1.75,1.75,0,0,1-1.75,1.75H11.63A1.75,1.75,0,0,1,9.88,9.75V8a1.75,1.75,0,0,1,1.75-1.75h5.25A1.75,1.75,0,0,1,18.63,8Z"/></svg>