<svg xmlns="http://www.w3.org/2000/svg" width="30" height="30" viewBox="0 0 30 30"><title>briefcase</title><path d="M13,14h4v4H30s-.22-7.69-.3-9.78S28.91,5,26.7,5H21.89c-.75-1.41-1.55-3.42-1.8-3.88A1.52,1.52,0,0,0,18.32,0H11.67A1.52,1.52,0,0,0,9.91,1.15C9.66,1.61,8.86,3.62,8.11,5H3.3C1.08,5,.38,6.26.3,8.25S0,18,0,18H13ZM11.47,2.9A1.12,1.12,0,0,1,12.7,2h4.6a1.12,1.12,0,0,1,1.22.87c.13.24.48,1.4.87,2.13H10.61C11,4.3,11.34,3.14,11.47,2.9Z"/><path d="M17,23H13v-3.5H1s.18,3.38.29,5.82A2.41,2.41,0,0,0,3.94,28H26c2.33,0,2.6-1.68,2.65-2.68.13-2.51.3-5.82.3-5.82H17Z"/></svg>