<svg xmlns="http://www.w3.org/2000/svg" width="30" height="30" viewBox="0 0 30 30"><title>cog</title><path d="M13.13,0,11.25,4.44a5.33,5.33,0,0,0-1,.49L5.76,3.06,3.07,5.76,4.95,10.2c-.19.37-.34.68-.49,1L0,13.13v3.75l4.44,1.88c.15.37.3.67.49,1L3.06,24.24l2.7,2.7,4.44-1.87c.34.15.68.34,1,.49L13.13,30h3.75l1.88-4.44c.34-.15.71-.3,1-.49l4.44,1.88,2.7-2.7L25.07,19.8l.49-1L30,16.88V13.13l-4.44-1.87a6.56,6.56,0,0,0-.49-1l1.88-4.44-2.7-2.68L19.8,4.95l-1-.51L16.88,0ZM15,6.34a8.61,8.61,0,1,1-.08,0Z"/></svg>