<svg xmlns="http://www.w3.org/2000/svg" width="30" height="30" viewBox="0 0 30 30"><title>core-data</title><path d="M3.5,7A1.5,1.5,0,0,1,5,8.5,1.48,1.48,0,0,1,3.71,10L3.5,10l-.21,0A1.48,1.48,0,0,1,2,8.5,1.5,1.5,0,0,1,3.5,7m0-2A3.49,3.49,0,0,0,3,11.95V19H8V18H4V11.95A3.49,3.49,0,0,0,3.5,5Z"/><path d="M26.5,2A1.5,1.5,0,0,1,28,3.5,1.48,1.48,0,0,1,26.71,5L26.5,5l-.21,0A1.48,1.48,0,0,1,25,3.5,1.5,1.5,0,0,1,26.5,2m0-2A3.49,3.49,0,0,0,26,6.95V11H22v1h5V6.95A3.49,3.49,0,0,0,26.5,0Z"/><path d="M26.5,25a1.5,1.5,0,0,1,0,3A1.48,1.48,0,0,1,25,26.71l0-.21,0-.21A1.48,1.48,0,0,1,26.5,25m0-2a3.49,3.49,0,0,0-3.45,3H15V23H14v4h9.05a3.49,3.49,0,1,0,3.45-4Z"/><rect x="9" y="3" width="12" height="5" rx="2" ry="2"/><rect x="9" y="10" width="12" height="5" rx="2" ry="2"/><rect x="9" y="17" width="12" height="5" rx="2" ry="2"/></svg>