<svg xmlns="http://www.w3.org/2000/svg" width="30" height="30" viewBox="0 0 30 30"><title>document-signed</title><path d="M16.5,17.58,17,20.87l3.29-.51,7.24-9.95-3.8-2.78ZM29.83,7.3a.88.88,0,0,0-.19-1.24L27.26,4.32A.88.88,0,0,0,26,4.52l-1.2,1.65,3.8,2.78Z"/><path d="M22.12,6.45,23.3,4.83h0l.71-1V2a2,2,0,0,0-2-2H7A3.49,3.49,0,0,0,5,1L1,5A3.49,3.49,0,0,0,0,7V28a2,2,0,0,0,2,2H22a2,2,0,0,0,2-2V18.65l-2.1,2.88-.49.67-.82.13-3.29.51-2,.31-.31-2-.51-3.29-.13-.82.49-.67ZM11,5h7a1,1,0,1,1,0,2H11a1,1,0,1,1,0-2ZM6.32,3A.67.67,0,0,1,7,3.67V6.33A.67.67,0,0,1,6.32,7H3.65A.67.67,0,0,1,3,6.33Zm8.26,19.58-.69,1.88a4.42,4.42,0,0,0-2.61-.29,6.47,6.47,0,0,0-.72.75C9.83,25.76,9,26.69,8,26.69a1.56,1.56,0,0,1-.5-.08c-1.12-.38-1.38-1.8-1.49-3.15a5.86,5.86,0,0,0-.47-2.17,8.23,8.23,0,0,0-1.08,3.58l-2-.27C3,21.08,4.2,19.07,5.69,19.13c.94,0,2.11.77,2.37,4.18a6.71,6.71,0,0,0,.17,1.18,12.06,12.06,0,0,0,.83-.88,6.26,6.26,0,0,1,1.13-1.1C11.61,21.58,14.1,22.41,14.58,22.58ZM3,16a1,1,0,0,1,1-1h7a1,1,0,1,1,0,2H4A1,1,0,0,1,3,16Zm1-4a1,1,0,1,1,0-2H15a1,1,0,1,1,0,2Z"/></svg>