<svg xmlns="http://www.w3.org/2000/svg" width="30" height="30" viewBox="0 0 30 30"><title>envelope-open</title><polygon points="7.74 20.34 4.07 16 4 16 4 15.92 1 12.37 1 24.26 7.74 20.34"/><path d="M14.5,16.41a1,1,0,0,1,1,0l5,2.91L24,15.18V2a2,2,0,0,0-2-2H8A2,2,0,0,0,6,2V15.18l3.5,4.14ZM9,3H21a1,1,0,0,1,0,2H9A1,1,0,0,1,9,3ZM9,7H21a1,1,0,0,1,0,2H9A1,1,0,0,1,9,7ZM8,12a1,1,0,0,1,1-1H21a1,1,0,0,1,0,2H9A1,1,0,0,1,8,12Z"/><path d="M15,18.43,1.05,26.54A3,3,0,0,0,4,29H26a3,3,0,0,0,2.93-2.46Z"/><polygon points="26 15.92 26 16 25.93 16 22.26 20.34 29 24.26 29 12.37 26 15.92"/><path d="M4,12.82V6.71l-1.46.95A2.76,2.76,0,0,0,1.1,9.4Z"/><path d="M26,12.82,28.9,9.4a2.73,2.73,0,0,0-1.36-1.7L26,6.7Z"/></svg>