<svg xmlns="http://www.w3.org/2000/svg" width="30" height="30" viewBox="0 0 30 30"><title>form-fill</title><path d="M22.12,6.45,23.3,4.83h0l.71-1V2a2,2,0,0,0-2-2H7A3.49,3.49,0,0,0,5,1L1,5A3.49,3.49,0,0,0,0,7V28a2,2,0,0,0,2,2H22a2,2,0,0,0,2-2V18.65l-2.1,2.88-.49.67-.82.13-3.29.51-2,.31-.31-2-.51-3.29-.13-.82.49-.67ZM18,25h2a1,1,0,1,1,0,2H18a1,1,0,1,1,0-2ZM7,3H19a1,1,0,1,1,0,2H7A1,1,0,1,1,7,3ZM4,20h7a1,1,0,1,1,0,2H4a1,1,0,1,1,0-2ZM3,16a1,1,0,0,1,1-1h7a1,1,0,1,1,0,2H4A1,1,0,0,1,3,16ZM6,27H4a1,1,0,1,1,0-2H6a1,1,0,1,1,0,2Zm7,0H11a1,1,0,1,1,0-2h2a1,1,0,1,1,0,2Zm1.3-15.4a1,1,0,0,1-.8.4H4a1,1,0,0,1-1-1V9A1,1,0,0,1,4,8H15a1,1,0,0,1,.8,1.6Z"/><path d="M16.5,17.58,17,20.87l3.29-.51,7.24-9.95-3.8-2.78ZM29.83,7.3a.88.88,0,0,0-.19-1.24L27.26,4.32A.88.88,0,0,0,26,4.52l-1.2,1.65,3.8,2.78Z"/></svg>