<svg xmlns="http://www.w3.org/2000/svg" width="30" height="30" viewBox="0 0 30 30"><title>gem</title><path d="M7.1,9.09c.79,0,.92-.5.49-.93L4.38,5c-.31-.36-.52-.35-.76-.11L.49,8C0,8.54.18,9.09.92,9.09Z"/><path d="M29.1,9.09c.79,0,.92-.5.49-.93L26.39,5c-.31-.31-.52-.31-.77-.06L22.5,8c-.5.5-.32,1.05.43,1.05H29.1Z"/><path d="M12.08,3c.79,0,.92.49.49.92L9.37,7.13c-.31.31-.52.31-.77.06L5.48,4C5,3.54,5.16,3,5.91,3Z"/><path d="M24.18,3c.79,0,.92.49.49.92l-3.2,3.21c-.31.31-.52.31-.77.06L17.57,4c-.5-.5-.32-1,.43-1h6.18Z"/><path d="M18.83,9c1,0,1.13-.64.6-1.17L15.5,3.93c-.38-.38-.64-.37-.94-.07L10.72,7.7c-.62.62-.39,1.3.53,1.3Z"/><path d="M7.66,10.37a.73.73,0,0,1,.89.67c.15.52,4.86,16.06,5.07,17s-.52,1-.92.49S.69,12,.23,11.34s-.21-1,.46-1Z"/><path d="M22.34,10.37a.73.73,0,0,0-.89.67c-.16.52-4.86,16.06-5.07,17s.52,1,.92.49S29.31,12,29.77,11.34s.21-1-.46-1Z"/><path d="M19,10.37c.79,0,.92.18.79.82s-4,16.33-4.3,17.26c-.17.57-.79.59-1-.06s-4.11-16.25-4.3-17.17.27-.89.61-.89Z"/></svg>