<svg xmlns="http://www.w3.org/2000/svg" width="30" height="30" viewBox="0 0 30 30"><title>graph-forecast</title><path d="M28,5.5a1.5,1.5,0,0,1-1.06-2.56l.5-.5a1.5,1.5,0,0,1,2.12,2.12l-.5.5A1.5,1.5,0,0,1,28,5.5Z"/><path d="M24,9.5a1.5,1.5,0,0,1-1.06-2.56l.5-.5a1.5,1.5,0,0,1,2.12,2.12l-.5.5A1.5,1.5,0,0,1,24,9.5Z"/><path d="M20,13.5a1.5,1.5,0,0,1-1.06-2.56l.5-.5a1.5,1.5,0,0,1,2.12,2.12l-.5.5A1.5,1.5,0,0,1,20,13.5Z"/><path d="M7.5,24a1.5,1.5,0,0,1-1.42-2l4-12a1.5,1.5,0,0,1,2.48-.59l5,5a1.5,1.5,0,0,1-2.12,2.12l-3.28-3.28L8.92,23A1.5,1.5,0,0,1,7.5,24Z"/><path d="M28.5,30H0V1.5a1.5,1.5,0,0,1,3,0V27H28.5a1.5,1.5,0,0,1,0,3Z"/></svg>