<svg xmlns="http://www.w3.org/2000/svg" width="30" height="30" viewBox="0 0 30 30"><title>handshake</title><path d="M8,9.79c-.85,1-.53,1.47-.36,1.73a1,1,0,0,0,1.56.37l1.87-1.23c1-.63,1.8-1.18,2.24-1.48a3.73,3.73,0,0,1,4.8.55c.52.54,5.55,6.17,8.78,9.8L30,19.46V8.22a10.89,10.89,0,0,0-1.16,0c-3.47,0-7.47-4-10.51-5.64A4.55,4.55,0,0,0,16.84,2,83.28,83.28,0,0,0,8,9.79Z"/><path d="M11.84,25.64A1.22,1.22,0,0,1,11.91,24a1.13,1.13,0,0,1,1.63.08L17,27.9a2.32,2.32,0,0,0,1.49-.74L14.74,23a1.22,1.22,0,0,1,.08-1.68,1.13,1.13,0,0,1,1.63.08L21,26.49a1.85,1.85,0,0,0,1.74-1.31l-5.23-5.93a1.22,1.22,0,0,1,.08-1.68,1.13,1.13,0,0,1,1.63.08l6.21,7A2.41,2.41,0,0,0,26.22,23a5.31,5.31,0,0,0-.08-.82C22.3,17.88,17,11.93,16.49,11.42a1.48,1.48,0,0,0-1.89-.25c-.44.3-1.3.86-2.28,1.51L10.46,13.9a3.31,3.31,0,0,1-4.72-1.06,3.69,3.69,0,0,1,.57-4.66,48.17,48.17,0,0,1,4.8-4.5C8.17,3.56,4.95,6.22,3.44,7.58a2.46,2.46,0,0,1-1.83.61H0V20.11H1.13c1.15,0,1.65-.3,3.61,1.67C6.28,23.36,10,27.06,10,27.06a4.09,4.09,0,0,0,2.54.94,2.43,2.43,0,0,0,1.13-.26Z"/></svg>