<svg xmlns="http://www.w3.org/2000/svg" width="30" height="30" viewBox="0 0 30 30"><title>input</title><path d="M9.48,18.2a3,3,0,0,0,2-1v-2.1C9,15.4,8.14,16.07,8.14,17S8.69,18.2,9.48,18.2Z"/><path d="M19,28H18a1,1,0,0,0,0,2h4a1,1,0,0,0,0-2H21V26H19Z"/><path d="M2,4A2,2,0,0,0,0,6V24a2,2,0,0,0,2,2H19V4ZM13.72,19.69h-1.8l-.17-1h-.06a4.53,4.53,0,0,1-2.9,1.26A2.64,2.64,0,0,1,6,17.17c0-2,1.68-3.05,5.52-3.47,0-1-.44-1.84-1.7-1.84a5.19,5.19,0,0,0-2.64.92l-.8-1.47a7.26,7.26,0,0,1,3.84-1.22c2.35,0,3.5,1.43,3.5,4.05Z"/><path d="M28,4H21V26h7a2,2,0,0,0,2-2V6A2,2,0,0,0,28,4Z"/><path d="M21,2h1a1,1,0,0,0,0-2H18a1,1,0,0,0,0,2h1V4h2Z"/></svg>