<svg xmlns="http://www.w3.org/2000/svg" width="30" height="30" viewBox="0 0 30 30"><title>list</title><path d="M13,6H26c.91,0,1-.68,1-1.5S26.91,3,26,3H13c-.92,0-1,.67-1,1.5S12.07,6,13,6Z"/><path d="M7,3H4c-.91,0-1,.67-1,1.5S3.09,6,4,6H7c.92,0,1-.68,1-1.5S7.92,3,7,3Z"/><path d="M13,13H26c.91,0,1-.67,1-1.5S26.93,10,26,10H13c-.91,0-1,.67-1,1.5S12.09,13,13,13Z"/><path d="M7,10H4c-.92,0-1,.67-1,1.5S3.08,13,4,13H7c.92,0,1-.67,1-1.5S7.92,10,7,10Z"/><path d="M13,20H26c.91,0,1-.67,1-1.5S26.93,17,26,17H13c-.91,0-1,.67-1,1.5S12.09,20,13,20Z"/><path d="M7,17H4c-.92,0-1,.67-1,1.5S3.08,20,4,20H7c.92,0,1-.67,1-1.5S7.92,17,7,17Z"/><path d="M13,27H26c.91,0,1-.67,1-1.5S26.93,24,26,24H13c-.91,0-1,.67-1,1.5S12.09,27,13,27Z"/><path d="M7,24H4c-.92,0-1,.67-1,1.5S3.09,27,4,27H7c.92,0,1-.67,1-1.5S7.92,24,7,24Z"/></svg>