<svg xmlns="http://www.w3.org/2000/svg" width="30" height="30" viewBox="0 0 30 30"><title>month-end</title><rect x="7" width="3" height="5"/><rect x="20" width="3" height="5"/><path d="M26.65,2H25V7H18V2H12V7H5V2H3.35A4,4,0,0,0,0,6V26.71H0A3.32,3.32,0,0,0,3.35,30H26.71A3.32,3.32,0,0,0,30,26.65V6A4,4,0,0,0,26.65,2ZM28,27a1,1,0,0,1-1,1H3a1,1,0,0,1-1-1V10A1,1,0,0,1,3,9H27a1,1,0,0,1,1,1Z"/><polygon points="22.56 21.86 23.94 25.81 20.5 23.02 17.06 26 18.44 21.85 15 19.32 19.13 19.32 20.5 15 21.88 19.32 26 19.32 22.56 21.86"/></svg>