<svg xmlns="http://www.w3.org/2000/svg" width="30" height="30" viewBox="0 0 30 30"><title>faq</title><path d="M14,0H4A4,4,0,0,0,0,4v6a4,4,0,0,0,3,3.86V18l4-4h7a4,4,0,0,0,4-4V4A4,4,0,0,0,14,0ZM10,12H8V10h2Zm.62-4.66-.14.09a.92.92,0,0,0-.48.8V9H8V8a1.8,1.8,0,0,1,.83-1.79l.92-.62a.93.93,0,0,0,.41-.66A.78.78,0,0,0,10,4.3,1.29,1.29,0,0,0,8.81,4C7.89,4.17,8,4.82,8,5.52v.3H5.86c0-1.18,0-2,.74-2.88A3,3,0,0,1,8.89,2h0a4.12,4.12,0,0,1,.83.08A3,3,0,0,1,12.17,5,2.72,2.72,0,0,1,10.62,7.34Z"/><path d="M25.93,12H19.12A5.5,5.5,0,0,1,14,15.5H12a4.07,4.07,0,0,0,0,.5v6a4,4,0,0,0,3.93,4h7L27,30V25.86A3.72,3.72,0,0,0,30,22V16A4.08,4.08,0,0,0,25.93,12ZM22,23H20V21h2Zm0-3H20V15h2Z"/></svg>