<svg xmlns="http://www.w3.org/2000/svg" width="30" height="30" viewBox="0 0 30 30"><title>sliders</title><path d="M3,16V28c0,.91.45,1,1,1s1-.07,1-1V16Z"/><path d="M5,9V2c0-.91-.45-1-1-1S3,1.09,3,2V9Z"/><path d="M16,16V2c0-.91-.45-1-1-1s-1,.09-1,1V16Z"/><path d="M14,23v5c0,.91.45,1,1,1s1-.07,1-1V23Z"/><path d="M25,12V28c0,.91.45,1,1,1s1-.07,1-1V12Z"/><path d="M27,5V2c0-.91-.45-1-1-1s-1,.09-1,1V5Z"/><rect y="10" width="8" height="5" rx="1" ry="1"/><rect x="11" y="17" width="8" height="5" rx="1" ry="1"/><rect x="22" y="6" width="8" height="5" rx="1" ry="1"/></svg>