<svg xmlns="http://www.w3.org/2000/svg" width="30" height="30" viewBox="0 0 30 30"><title>tools</title><path d="M4.64,10.3C6,9.22,7.21,10,8.76,11.76c.17.21.41,0,.54-.15l2.28-2a.3.3,0,0,0,0-.42h0c-.16-.19-.74-1-1.12-1.47-2.66-3.57,7.48-6,5.93-6H11.94A14.78,14.78,0,0,0,6.33,4.54,15.25,15.25,0,0,0,4,6.41c-.45.39,0,1.31-.9,2S1.86,8.56,1.3,9L.15,9.91a.49.49,0,0,0,0,.69h0l2.06,2.3a.65.65,0,0,0,.86.11l1.07-.94A3.07,3.07,0,0,1,4.64,10.3Zm8.57.79a.39.39,0,0,0-.55,0h0l-2.15,1.83a.43.43,0,0,0,0,.6L22.92,27.7a.8.8,0,0,0,1.12,0l1.46-1.22a.8.8,0,0,0,0-1.13h0ZM29.92,5c-.11-.75-.51-.58-.69-.28S28.14,6.43,27.79,7a1.87,1.87,0,0,1-2.9.62c-1.73-1.19-1.13-2-.83-2.62s1.23-2.19,1.37-2.39a.41.41,0,0,0-.56-.54c-.54.24-3.74,1.53-4.25,3.4S21,9,19.35,10.73l-2.11,2.1,2,2.36,2.49-2.36a3.52,3.52,0,0,1,3-.92A3.74,3.74,0,0,0,29.36,10,10.79,10.79,0,0,0,29.92,5ZM4.12,25.62a.8.8,0,0,0,0,1.13h0l1.35,1.31a.8.8,0,0,0,1.12,0L14,20.82l-2.3-2.66Z"/></svg>