<svg xmlns="http://www.w3.org/2000/svg" width="12" height="12" viewBox="0 0 12 12"><title>atom</title><path d="M10,8a2,2,0,0,0-1,.3L7.7,7a2,2,0,0,0,0-2L9,3.73A2,2,0,1,0,8,2a2,2,0,0,0,.28,1L7,4.28a1.95,1.95,0,0,0-2,0L3.7,3A2,2,0,1,0,2,4a2,2,0,0,0,1-.27L4.27,5a1.94,1.94,0,0,0,0,2L3,8.28A2,2,0,1,0,4,10a2,2,0,0,0-.28-1L5,7.72a1.94,1.94,0,0,0,2,0L8.27,9A2,2,0,0,0,8,10a2,2,0,1,0,2-2ZM.75,2A1.25,1.25,0,1,1,2,3.25,1.25,1.25,0,0,1,.75,2ZM2,11.25A1.26,1.26,0,0,1,2,8.74H2a1.25,1.25,0,0,1,0,2.5ZM4.75,6A1.25,1.25,0,1,1,6,7.25,1.25,1.25,0,0,1,4.75,6ZM10,11.25a1.25,1.25,0,0,1,0-2.5h0a1.25,1.25,0,1,1,0,2.5Z"/></svg>