<svg xmlns="http://www.w3.org/2000/svg" width="12" height="12" viewBox="0 0 12 12"><title>cog</title><path d="M5.25,0,4.5,1.8c-.15,0-.3.15-.45.15L2.25,1.2l-1,1L2,4c0,.15-.15.3-.15.45L0,5.25v1.5l1.8.75c0,.15.15.3.15.45L1.2,9.75l1,1.05,1.8-.8c.15,0,.3.15.45.15L5.25,12h1.5l.75-1.8c.15,0,.3-.15.45-.15l1.8.75L10.8,9.75,10,7.95c0-.15.15-.3.15-.45L12,6.75V5.25L10.2,4.5c0-.15-.15-.3-.15-.45l.75-1.8L9.75,1.2,7.95,2c-.15,0-.3-.15-.45-.15L6.75,0ZM6,2.55A3.39,3.39,0,0,1,9.45,5.88s0,.08,0,.12A3.39,3.39,0,0,1,6.12,9.45H6A3.39,3.39,0,0,1,2.55,6.12s0-.08,0-.12A3.39,3.39,0,0,1,5.88,2.55Z"/></svg>