<svg xmlns="http://www.w3.org/2000/svg" width="12" height="12" viewBox="0 0 12 12"><title>gauge</title><path d="M4.88,8.09a1.17,1.17,0,0,0,.27,1.6l.17.1a1.08,1.08,0,0,0,1.51-.23l0,0A1.15,1.15,0,0,0,7,9.33c.41-.78,3-7.36,2.8-7.5S5.29,7.35,4.88,8.09ZM6,3.28a4.36,4.36,0,0,1,.75.07l.84-1.08A5.63,5.63,0,0,0,6,2C2.63,2,0,5,0,8.71v.68A.61.61,0,0,0,.61,10a.61.61,0,0,0,.59-.63h0a.64.64,0,0,0,0-.09V8.71C1.2,5.66,3.31,3.28,6,3.28Zm4.34.78c-.16.46-.34.94-.5,1.34a6,6,0,0,1,1,3.31v.58a.62.62,0,0,0,.54.67h0A.61.61,0,0,0,12,9.4V8.7a7.12,7.12,0,0,0-1.66-4.65Z"/></svg>