<svg xmlns="http://www.w3.org/2000/svg" width="12" height="12" viewBox="0 0 12 12"><title>gem</title><path d="M2.71,4c.31,0,.36-.24.19-.44L1.64,2c-.12-.15-.21-.14-.3,0L.11,3.5c-.2.24-.13.5.17.5Z"/><path d="M7.52,4c.39,0,.45-.3.24-.55L6.18,1.55c-.15-.18-.26-.18-.38,0L4.26,3.38c-.25.3-.16.62.21.62Z"/><path d="M11.71,4c.31,0,.36-.24.19-.44L10.64,2c-.12-.15-.21-.14-.3,0L9.11,3.5c-.2.24-.13.5.17.5Z"/><path d="M7.39,1c-.28,0-.33.22-.18.4L8.37,2.8c.11.14.19.13.28,0L9.77,1.46C10,1.24,9.89,1,9.62,1Z"/><path d="M2.39,1c-.28,0-.33.22-.18.4L3.37,2.8c.11.14.19.13.28,0L4.77,1.46C5,1.24,4.89,1,4.62,1Z"/><path d="M2.95,4.76c.23,0,.28.06.34.26s1.87,6.27,1.95,6.66-.2.38-.35.19S.26,5.4.09,5.14,0,4.75.27,4.75Z"/><path d="M9.05,4.76c-.23,0-.28.06-.34.26S6.85,11.3,6.76,11.68s.2.38.35.19,4.62-6.48,4.79-6.73.08-.39-.18-.39Z"/><path d="M7.45,4.76c.29,0,.33.07.29.32s-1.46,6.38-1.56,6.74-.29.23-.35,0S4.33,5.46,4.26,5.1s.1-.35.22-.35Z"/></svg>