<svg xmlns="http://www.w3.org/2000/svg" width="18" height="18" viewBox="0 0 18 18"><title>question-circle</title><path d="M9,0a9,9,0,1,0,9,9A9,9,0,0,0,9,0ZM8.85,14.25h0a1.26,1.26,0,0,1,0-2.51h0a1.26,1.26,0,0,1,.24,2.51Zm3.08-6.12a5.74,5.74,0,0,1-1,.87l-.53.36a1.43,1.43,0,0,0-.53.64,1.32,1.32,0,0,0-.08.54v.14h-2v-.17A2.25,2.25,0,0,1,8.1,9.06,8.59,8.59,0,0,1,9.61,7.88,1.54,1.54,0,0,0,10,7.51a1.28,1.28,0,0,0,.29-.76A1.45,1.45,0,0,0,10,5.89a1.12,1.12,0,0,0-1-.38A1.13,1.13,0,0,0,8,6a1.86,1.86,0,0,0-.3,1v.09H5.63V7A3.15,3.15,0,0,1,7,4.26a3.56,3.56,0,0,1,1.95-.51,4.21,4.21,0,0,1,2.51.74,2.51,2.51,0,0,1,1,2.17A2.49,2.49,0,0,1,12,8.11Z"/></svg>